<mxfile host="Electron" agent="Mozilla/5.0 (Windows NT 10.0; Win64; x64) AppleWebKit/537.36 (KHTML, like Gecko) draw.io/26.2.15 Chrome/134.0.6998.205 Electron/35.2.1 Safari/537.36" version="26.2.15">
  <diagram name="Página-1" id="G7BPBhEUl6SxfmEIlCjJ">
    <mxGraphModel dx="484" dy="294" grid="1" gridSize="10" guides="1" tooltips="1" connect="1" arrows="1" fold="1" page="1" pageScale="1" pageWidth="827" pageHeight="1169" math="1" shadow="0">
      <root>
        <mxCell id="0" />
        <mxCell id="1" parent="0" />
        <mxCell id="b48aiTlVt1biqN1vkchJ-3" style="edgeStyle=orthogonalEdgeStyle;rounded=0;orthogonalLoop=1;jettySize=auto;html=1;entryX=0.5;entryY=0;entryDx=0;entryDy=0;curved=1;" parent="1" source="b48aiTlVt1biqN1vkchJ-1" target="b48aiTlVt1biqN1vkchJ-2" edge="1">
          <mxGeometry relative="1" as="geometry" />
        </mxCell>
        <mxCell id="b48aiTlVt1biqN1vkchJ-11" value="NÃO" style="edgeLabel;html=1;align=center;verticalAlign=middle;resizable=0;points=[];fontSize=15;labelBackgroundColor=none;" parent="b48aiTlVt1biqN1vkchJ-3" vertex="1" connectable="0">
          <mxGeometry x="-0.0055" y="3" relative="1" as="geometry">
            <mxPoint x="-39" y="-17" as="offset" />
          </mxGeometry>
        </mxCell>
        <mxCell id="b48aiTlVt1biqN1vkchJ-5" style="edgeStyle=orthogonalEdgeStyle;rounded=0;orthogonalLoop=1;jettySize=auto;html=1;entryX=0.5;entryY=0;entryDx=0;entryDy=0;curved=1;" parent="1" source="b48aiTlVt1biqN1vkchJ-1" target="b48aiTlVt1biqN1vkchJ-4" edge="1">
          <mxGeometry relative="1" as="geometry" />
        </mxCell>
        <mxCell id="b48aiTlVt1biqN1vkchJ-10" value="SIM" style="edgeLabel;html=1;align=center;verticalAlign=middle;resizable=0;points=[];fontSize=15;labelBackgroundColor=none;" parent="b48aiTlVt1biqN1vkchJ-5" vertex="1" connectable="0">
          <mxGeometry x="-0.2155" y="-2" relative="1" as="geometry">
            <mxPoint y="-18" as="offset" />
          </mxGeometry>
        </mxCell>
        <mxCell id="b48aiTlVt1biqN1vkchJ-1" value="$$X_2 \leq&amp;nbsp;-1.55$$" style="ellipse;whiteSpace=wrap;html=1;labelBackgroundColor=none;fillColor=none;" parent="1" vertex="1">
          <mxGeometry x="268" y="435" width="120" height="80" as="geometry" />
        </mxCell>
        <mxCell id="b48aiTlVt1biqN1vkchJ-7" style="edgeStyle=orthogonalEdgeStyle;rounded=0;orthogonalLoop=1;jettySize=auto;html=1;entryX=0.5;entryY=0;entryDx=0;entryDy=0;curved=1;" parent="1" source="b48aiTlVt1biqN1vkchJ-2" target="b48aiTlVt1biqN1vkchJ-6" edge="1">
          <mxGeometry relative="1" as="geometry" />
        </mxCell>
        <mxCell id="b48aiTlVt1biqN1vkchJ-13" value="NÃO" style="edgeLabel;html=1;align=center;verticalAlign=middle;resizable=0;points=[];fontSize=15;labelBackgroundColor=none;" parent="b48aiTlVt1biqN1vkchJ-7" vertex="1" connectable="0">
          <mxGeometry x="-0.105" y="5" relative="1" as="geometry">
            <mxPoint y="-25" as="offset" />
          </mxGeometry>
        </mxCell>
        <mxCell id="b48aiTlVt1biqN1vkchJ-9" style="edgeStyle=orthogonalEdgeStyle;rounded=0;orthogonalLoop=1;jettySize=auto;html=1;entryX=0.5;entryY=0;entryDx=0;entryDy=0;curved=1;" parent="1" source="b48aiTlVt1biqN1vkchJ-2" target="b48aiTlVt1biqN1vkchJ-8" edge="1">
          <mxGeometry relative="1" as="geometry" />
        </mxCell>
        <mxCell id="b48aiTlVt1biqN1vkchJ-12" value="SIM" style="edgeLabel;html=1;align=center;verticalAlign=middle;resizable=0;points=[];fontSize=15;labelBackgroundColor=none;" parent="b48aiTlVt1biqN1vkchJ-9" vertex="1" connectable="0">
          <mxGeometry x="-0.1934" y="-1" relative="1" as="geometry">
            <mxPoint x="6" y="-21" as="offset" />
          </mxGeometry>
        </mxCell>
        <mxCell id="b48aiTlVt1biqN1vkchJ-2" value="$$X_2 \leq 5.36$$" style="ellipse;whiteSpace=wrap;html=1;fillColor=none;" parent="1" vertex="1">
          <mxGeometry x="439" y="545" width="120" height="80" as="geometry" />
        </mxCell>
        <mxCell id="b48aiTlVt1biqN1vkchJ-4" value="$$1$$" style="ellipse;whiteSpace=wrap;html=1;fontSize=20;fillColor=none;" parent="1" vertex="1">
          <mxGeometry x="97" y="545" width="120" height="80" as="geometry" />
        </mxCell>
        <mxCell id="b48aiTlVt1biqN1vkchJ-6" value="$$1$$" style="ellipse;whiteSpace=wrap;html=1;fontSize=20;fillColor=none;" parent="1" vertex="1">
          <mxGeometry x="268" y="655" width="120" height="80" as="geometry" />
        </mxCell>
        <mxCell id="b48aiTlVt1biqN1vkchJ-8" value="$$0$$" style="ellipse;whiteSpace=wrap;html=1;fontSize=20;fillColor=none;" parent="1" vertex="1">
          <mxGeometry x="610" y="655" width="120" height="80" as="geometry" />
        </mxCell>
      </root>
    </mxGraphModel>
  </diagram>
</mxfile>
